<svg width="540" height="74" viewBox="0 0 540 74" fill="none" xmlns="http://www.w3.org/2000/svg">
<path d="M195 0H37.634C26.4791 0 15.9195 5.03265 8.89406 13.6973C-2.11933 27.2805 -2.11933 46.7195 8.89406 60.3027C15.9195 68.9674 26.4791 74 37.634 74H502.366C513.521 74 524.081 68.9674 531.106 60.3027C542.119 46.7195 542.119 27.2805 531.106 13.6973C524.081 5.03265 513.521 0 502.366 0H345C331.193 0 320.676 11.7439 314.882 24.2766C308.496 38.0905 295.203 50 270 50C244.797 50 231.504 38.0905 225.118 24.2766C219.324 11.7439 208.807 0 195 0Z" fill="#1F5F61"/>
</svg>
